<svg xmlns="http://www.w3.org/2000/svg" viewBox="0 0 1024 1024" role="img" aria-label="MPG Dual Mode Switcher app icon">
  <defs>
    <linearGradient id="bg" x1="176" y1="126" x2="848" y2="898" gradientUnits="userSpaceOnUse">
      <stop offset="0" stop-color="#253646"/>
      <stop offset="0.52" stop-color="#15202A"/>
      <stop offset="1" stop-color="#0D151D"/>
    </linearGradient>
    <linearGradient id="track" x1="212" y1="408" x2="812" y2="616" gradientUnits="userSpaceOnUse">
      <stop offset="0" stop-color="#23D3A3"/>
      <stop offset="0.48" stop-color="#1FB8C6"/>
      <stop offset="0.52" stop-color="#EAF5F6"/>
      <stop offset="1" stop-color="#5B8CFF"/>
    </linearGradient>
    <radialGradient id="thumb" cx="0" cy="0" r="1" gradientTransform="matrix(0 118 -118 0 512 494)" gradientUnits="userSpaceOnUse">
      <stop offset="0" stop-color="#FFFFFF"/>
      <stop offset="1" stop-color="#DDE8EE"/>
    </radialGradient>
    <filter id="softShadow" x="-20%" y="-20%" width="140%" height="140%">
      <feDropShadow dx="0" dy="24" stdDeviation="24" flood-color="#000000" flood-opacity="0.35"/>
    </filter>
    <filter id="glow" x="-30%" y="-40%" width="160%" height="180%">
      <feGaussianBlur stdDeviation="18" result="blur"/>
      <feColorMatrix in="blur" type="matrix" values="0 0 0 0 0.16 0 0 0 0 0.86 0 0 0 0 0.67 0 0 0 0.55 0"/>
      <feBlend in="SourceGraphic" mode="screen"/>
    </filter>
  </defs>

  <rect x="64" y="64" width="896" height="896" rx="206" fill="url(#bg)"/>
  <rect x="90" y="90" width="844" height="844" rx="186" fill="none" stroke="#FFFFFF" stroke-opacity="0.08" stroke-width="6"/>

  <g opacity="0.38" filter="url(#glow)">
    <ellipse cx="334" cy="352" rx="178" ry="58" fill="#23D3A3"/>
    <ellipse cx="702" cy="674" rx="196" ry="62" fill="#5B8CFF" opacity="0.78"/>
  </g>

  <g filter="url(#softShadow)">
    <rect x="176" y="370" width="672" height="284" rx="142" fill="#0A1118"/>
    <rect x="206" y="400" width="612" height="224" rx="112" fill="url(#track)"/>
    <path d="M512 400h194c62 0 112 50 112 112s-50 112-112 112H512V400z" fill="#EDF6F7" opacity="0.94"/>
    <rect x="218" y="412" width="588" height="200" rx="100" fill="none" stroke="#FFFFFF" stroke-opacity="0.32" stroke-width="10"/>
  </g>

  <g opacity="0.94">
    <rect x="300" y="474" width="44" height="44" rx="11" fill="#0E2530"/>
    <rect x="360" y="474" width="44" height="44" rx="11" fill="#0E2530"/>
    <rect x="300" y="534" width="44" height="44" rx="11" fill="#0E2530"/>
    <rect x="360" y="534" width="44" height="44" rx="11" fill="#0E2530"/>

    <path d="M644 470h80" stroke="#2C5AE8" stroke-width="24" stroke-linecap="round"/>
    <path d="M618 512h128" stroke="#2C5AE8" stroke-width="24" stroke-linecap="round"/>
    <path d="M644 554h80" stroke="#2C5AE8" stroke-width="24" stroke-linecap="round"/>
  </g>

  <g filter="url(#softShadow)">
    <circle cx="512" cy="512" r="112" fill="url(#thumb)"/>
    <circle cx="512" cy="512" r="91" fill="none" stroke="#FFFFFF" stroke-width="8" stroke-opacity="0.72"/>
    <path d="M480 485h64l-20-20m20 20-20 20M544 539h-64l20 20m-20-20 20-20" fill="none" stroke="#1D2F3B" stroke-width="18" stroke-linecap="round" stroke-linejoin="round"/>
  </g>
</svg>
